<?xml version="1.0" standalone="no"?>
<!DOCTYPE svg PUBLIC "-//W3C//DTD SVG 20010904//EN"
 "http://www.w3.org/TR/2001/REC-SVG-20010904/DTD/svg10.dtd">
<svg version="1.0" xmlns="http://www.w3.org/2000/svg"
 width="480.000000pt" height="480.000000pt" viewBox="0 0 480.000000 480.000000"
 preserveAspectRatio="xMidYMid meet">
<metadata>
Created by potrace 1.16, written by Peter Selinger 2001-2019
</metadata>
<g transform="translate(0.000000,480.000000) scale(0.100000,-0.100000)"
fill="#000000" stroke="none">
<path d="M4005 3671 l-130 -46 -3 -118 -3 -118 -45 -19 c-45 -20 -62 -44 -79
-113 l-7 -27 63 29 64 29 3 -167 c3 -191 -8 -271 -48 -356 -31 -64 -103 -151
-118 -141 -5 3 -12 41 -15 84 -3 43 -24 147 -46 232 -101 385 -110 415 -123
412 -25 -5 -243 -85 -254 -94 -6 -4 -14 -38 -18 -74 -16 -158 -112 -518 -152
-571 -28 -37 -54 -104 -54 -140 0 -35 -100 -137 -166 -169 -33 -16 -78 -28
-117 -31 -58 -5 -64 -4 -94 24 -34 32 -53 85 -53 149 0 39 1 40 51 58 98 36
225 149 274 246 32 63 45 117 46 193 3 181 -95 253 -270 198 -222 -69 -361
-303 -378 -631 -3 -67 -1 -139 6 -173 13 -69 1 -101 -51 -140 -37 -28 -98 -45
-98 -28 0 6 -7 8 -15 5 -10 -4 -20 5 -30 30 -13 30 -15 127 -15 649 l0 614
-137 -51 -138 -52 0 -619 c0 -502 3 -629 14 -668 15 -51 77 -127 99 -119 6 2
12 0 12 -5 0 -4 35 -6 78 -3 130 10 227 67 293 173 18 28 35 54 37 57 2 3 9
-2 16 -10 35 -44 85 -80 116 -85 72 -11 162 -7 200 8 8 4 41 16 72 27 94 35
197 124 265 229 1 2 25 -19 53 -47 57 -56 100 -72 188 -68 145 7 222 49 386
210 68 67 136 140 151 164 15 23 29 42 31 42 2 0 4 -73 4 -163 l0 -163 -77
-23 c-940 -273 -1721 -559 -2281 -837 l-187 -92 520 -1 521 -1 129 97 c169
125 465 321 634 417 146 84 451 240 451 230 0 -3 16 4 35 16 19 12 35 18 35
15 0 -4 11 0 25 9 14 9 25 14 25 10 0 -3 11 1 25 10 14 9 25 14 25 10 0 -3 11
1 25 10 14 9 25 14 25 10 0 -4 7 -1 15 6 8 7 15 10 15 7 0 -3 16 1 35 9 19 7
36 14 38 14 3 0 16 -17 29 -38 28 -42 95 -92 127 -95 11 -1 21 -5 21 -9 0 -3
8 -6 18 -5 9 0 45 -5 78 -12 47 -10 66 -10 83 -2 12 7 31 9 41 6 12 -4 20 -2
20 4 0 6 7 11 15 11 9 0 38 11 64 25 100 50 125 140 58 201 -47 44 -121 64
-229 64 l-88 0 0 495 0 495 24 10 c13 4 32 10 42 12 11 2 21 6 24 9 3 3 42 18
87 34 l82 28 17 51 c9 28 19 56 21 62 2 6 -54 -10 -124 -36 -70 -26 -138 -51
-150 -55 -22 -6 -22 -5 -25 108 l-3 114 -130 -46z m-595 -996 c20 -124 4 -212
-47 -257 -36 -33 -102 -50 -142 -37 -54 17 -56 24 -12 44 49 22 75 49 96 97
24 59 19 86 -21 125 -20 18 -43 32 -52 31 -21 -4 -22 -12 22 147 19 72 40 150
47 175 l12 45 43 -155 c25 -85 49 -181 54 -215z m-596 336 c11 -12 20 -43 23
-78 6 -69 -21 -162 -67 -229 -30 -42 -100 -104 -123 -108 -6 -1 -18 -6 -26
-10 -12 -8 -13 4 -7 75 11 147 65 311 114 349 31 25 64 25 86 1z m1564 -728
c35 -26 34 -50 -1 -77 -44 -32 -122 -28 -170 8 -41 32 -58 73 -36 88 8 5 51 7
97 5 63 -3 89 -8 110 -24z"/>
<path d="M982 3549 c-234 -41 -457 -197 -614 -428 -50 -74 -131 -233 -143
-281 -6 -26 2 -34 261 -263 l32 -27 -5 64 c-8 90 15 285 44 385 51 177 153
316 281 380 34 17 62 28 62 25 0 -4 6 -1 14 5 26 22 201 36 224 18 6 -5 12 -7
12 -4 0 4 21 -6 48 -21 36 -22 54 -42 76 -85 25 -49 29 -67 28 -139 -1 -215
-112 -409 -259 -453 l-23 -6 0 225 c0 205 11 333 28 322 4 -2 7 9 8 25 1 35
-11 37 -90 9 -131 -45 -224 -153 -272 -315 -15 -54 -18 -137 -23 -780 -7 -702
-7 -721 -28 -777 l-21 -56 29 8 c16 5 29 7 29 5 0 -2 26 5 57 16 120 41 216
117 254 202 24 52 24 53 27 519 l3 467 57 17 c200 60 302 3 348 -193 23 -98
15 -304 -15 -392 -58 -167 -172 -236 -276 -166 -20 15 -40 23 -44 20 -3 -4 -6
-43 -6 -88 0 -67 4 -88 22 -117 24 -40 79 -76 107 -71 10 1 16 -2 12 -7 -13
-21 136 14 204 48 114 58 204 166 261 317 34 89 38 103 45 157 3 22 10 48 15
58 6 10 7 23 4 28 -3 5 -2 24 3 42 5 19 5 84 1 149 -14 204 -69 318 -182 375
-44 23 -172 48 -189 37 -16 -9 -7 8 32 59 111 145 156 329 115 464 -18 61 -18
62 1 38 14 -18 15 -18 4 4 -6 12 -15 20 -20 17 -5 -3 -16 8 -24 24 -21 39
-102 97 -173 122 -67 25 -251 34 -341 18z"/>
</g>
</svg>
